<svg xmlns="http://www.w3.org/2000/svg" xmlns:xlink="http://www.w3.org/1999/xlink" viewBox="0 0 388.43 382.9"><defs><style>.cls-1{fill:none;}.cls-2{fill:#fff;}.cls-3{clip-path:url(#clip-path);}</style><clipPath id="clip-path"><rect class="cls-1" y="0.1" width="388.8" height="382.9"/></clipPath></defs><title>icon-expandapple-touch-icon-114x114</title><g id="Layer_2" data-name="Layer 2"><g id="Layer_1-2" data-name="Layer 1"><path class="cls-2" d="M129.84,223.54,41.74,311.63v-63H0V382.9H134.25V341.15h-63l88.09-88.09Zm0,0"/><g class="cls-3"><path class="cls-2" d="M346.69,311.63,258.6,223.54l-29.52,29.52,88.09,88.09h-63V382.9H388.43V248.65H346.69Zm0,0"/><path class="cls-2" d="M254.18,0V41.74h63l-88.09,88.09,29.52,29.52,88.09-88.09v63h41.75V0Zm0,0"/><path class="cls-2" d="M134.25,41.74V0H0V134.25H41.74v-63l88.09,88.09,29.52-29.52L71.26,41.74Zm0,0"/></g></g></g></svg>