<svg xmlns="http://www.w3.org/2000/svg" viewBox="0 0 107.45 108.52"><defs><style>.cls-1{fill:#151515;}</style></defs><title>logo-rdlab</title><g id="Layer_2" data-name="Layer 2"><g id="Layer_1-2" data-name="Layer 1"><path class="cls-1" d="M39.08,68.73c.51.64.61.83.61,1.1,0,.64-.42.87-1.56.87H31.81c-1.05,0-1.1,0-1.46-.6l-.23-.31L23.16,59V69.19c0,1.37-.14,1.51-1.51,1.51h-4.9c-1.37,0-1.51-.14-1.51-1.51V41.68c0-1.37.14-1.5,1.51-1.5H27.56c3.48,0,5.72.82,7.5,2.7a9.89,9.89,0,0,1,2.61,6.73,9,9,0,0,1-2.8,6.77A7.89,7.89,0,0,1,31,58.21ZM24.62,53.85A5.65,5.65,0,0,0,28,53a3.67,3.67,0,0,0,0-5.95,5.66,5.66,0,0,0-3.38-.83H23.16v7.6ZM44,41.68c0-1.37.14-1.5,1.51-1.5H55.76a15.42,15.42,0,0,1,15,15.24c0,8.24-7,15.29-15,15.29H45.55c-1.37,0-1.51-.14-1.51-1.51ZM53.79,64c3,0,4.9-.78,6.5-2.56a9.22,9.22,0,0,0,0-12c-1.6-1.78-3.52-2.56-6.5-2.56H52V64ZM23.62,88.27c.69,0,.76.06.76.75v1.85c0,.68-.07.76-.76.76h-7.2c-.69,0-.76-.07-.76-.76V77.11c0-.68.07-.75.76-.75h2.44c.69,0,.76.07.76.75V88.27Zm7.56.7-.83,2.09c-.23.57-.23.57-.84.57H26.9c-.57,0-.76-.12-.76-.43,0-.11,0-.14.14-.48l5.29-13.78.06-.18c.14-.36.21-.39.78-.39H35.5c.62,0,.62,0,.83.57l5.19,13.78a1.31,1.31,0,0,1,.14.51c0,.29-.18.41-.76.41H38.25c-.57,0-.64,0-.75-.39L37.42,91,36.65,89Zm2.77-7.9L32.28,86h3.29Zm16-4.71c2.79,0,4.3,1.4,4.3,4a3.24,3.24,0,0,1-1.67,3.16,3.57,3.57,0,0,1,2.13.94,4.16,4.16,0,0,1,1,2.86c0,2.68-2,4.33-5.26,4.33H44.77c-.69,0-.76-.07-.76-.76V77.11c0-.68.06-.75.76-.75Zm-1.2,6c1.21,0,1.85-.53,1.85-1.51s-.64-1.49-1.85-1.49H48v3Zm.13,6.16c2,0,2.8-.48,2.8-1.61a1.47,1.47,0,0,0-.75-1.32,4.14,4.14,0,0,0-2.11-.28H48v3.21ZM70.77,0V11.56H0v97H97V36.67h10.49V0ZM90.18,101.73H6.78V18.33h64V36.67H90.18Zm7.08-73.56c0,.94-.09,1-1,1H82.4c-.78,0-1.06-.16-1.06-.63,0-.22.06-.31.47-.75l4-4.16a47.88,47.88,0,0,0,4.35-5.32,6.74,6.74,0,0,0,1.25-3.6A2.58,2.58,0,0,0,89,12.07a2.15,2.15,0,0,0-2.19,2.28c0,1.06-.09,1.16-1,1.16H82c-.81,0-1-.16-1-.66a8.84,8.84,0,0,1,1.69-4.57A7.68,7.68,0,0,1,89,7.47C93.69,7.47,97,10.6,97,15c0,2.44-.94,4.35-3.1,6.38l-3.5,3.25h5.79c.94,0,1,.09,1,1Z"/></g></g></svg>