<svg xmlns="http://www.w3.org/2000/svg" viewBox="0 0 108.68 204.68"><defs><style>.cls-1{fill:#fff;fill-rule:evenodd;}</style></defs><title>popup-arrow</title><g id="Layer_2" data-name="Layer 2"><g id="Layer_1-2" data-name="Layer 1"><path class="cls-1" d="M93.61,102.52c-10.27-10.25-20.09-20-29.89-29.84C43.32,52.29,23,31.83,2.48,11.53-1.68,7.41,0,1.37,4.84.19c2.55-.62,4.58.29,6.37,2.08Q23.11,14.21,35,26.11L104.91,96l1.31,1.34c3.3,3.4,3.28,6.76-.1,10.14L46.7,166.89Q29,184.54,11.4,202.2c-2,2-4.24,3.1-7.1,2.1a6.26,6.26,0,0,1-2.94-9.85,19.15,19.15,0,0,1,1.71-1.82q44.2-44.21,88.41-88.41A26.77,26.77,0,0,1,93.61,102.52Z"/></g></g></svg>